<svg width="40" height="40" viewBox="0 0 40 40" fill="none" xmlns="http://www.w3.org/2000/svg">
<path fill-rule="evenodd" clip-rule="evenodd" d="M40 9.99982L36.6665 9.99982L36.6665 6.66664L33.3334 6.66664L33.3334 3.33318L30.0002 3.33318L30.0002 -4.37106e-07L9.99982 -1.31135e-06L9.99982 3.33318L6.66664 3.33318L6.66664 6.66664L3.33346 6.66664L3.33346 9.99982L-4.37106e-07 9.99982L-1.31132e-06 29.9995L3.33346 29.9995L3.33346 33.3329L6.66664 33.3329L6.66664 36.6661L9.99982 36.6661L9.99982 39.9993L30.0002 39.9993L30.0002 36.6661L33.3334 36.6661L33.3334 33.3329L36.6665 33.3329L36.6665 29.9995L40 29.9995L40 9.99982ZM36.6665 29.9995L33.3334 29.9995L33.3334 33.3329L30.0002 33.3329L30.0002 36.6661L9.99982 36.6661L9.99982 33.3329L6.66664 33.3329L6.66664 29.9995L3.33346 29.9995L3.33346 9.99982L6.66664 9.99982L6.66664 6.66664L9.99982 6.66664L9.99982 3.33318L30.0002 3.33318L30.0002 6.66664L33.3334 6.66664L33.3334 9.99982L36.6665 9.99982L36.6665 29.9995ZM30.0002 9.99982L20.0004 9.99982L20.0004 13.333L16.6672 13.333L16.6672 16.6665L23.3339 16.6665L23.3339 23.3329L26.6671 23.3329L26.6671 19.9997L30.0005 19.9997L30.0002 9.99982ZM23.3335 23.3327L16.6667 23.3327L16.6667 16.6662L13.3336 16.6662L13.3336 19.9994L10.0001 19.9994L10.0001 29.9992L19.9999 29.9992L19.9999 26.6661L23.3334 26.6661L23.3335 23.3327ZM15 22L15 25L18 25L18 28L15 28L12 28L12 25L12 22L15 22Z" fill="white"/>
</svg>
