<svg width="40" height="40" viewBox="0 0 40 40" fill="none" xmlns="http://www.w3.org/2000/svg">
<path d="M24.1417 11.2974H21.2828V5.58035H24.1417V11.2974ZM18.4295 5.58035H15.5706V11.2974H18.4295V5.58035ZM18.4295 19.8677H21.2828V14.1507H18.4295V19.8677ZM33 14.1507V19.8677H29.8592V25.5795H27.0003V34.1502H29.8592V37.0091H33V40H7V37.0087H9.8589V34.1498H12.7122L12.7125 25.5795H9.85928L9.8589 19.8677H7V14.1507H9.8589V2.72689H12.7122V14.1507H15.5711V22.7214H24.1418V14.151H27.0007V2.72727H29.8596V14.151L33 14.1507ZM21.2835 34.1499H18.4303V37.0088H21.2835V34.1499ZM27.0007 2.72727L27.0006 0H12.7132V2.72688L27.0007 2.72727Z" fill="white"/>
</svg>
