<svg width="40" height="40" viewBox="0 0 40 40" fill="none" xmlns="http://www.w3.org/2000/svg">
<path d="M20 0H22.5V2.5H20V0Z" fill="white"/>
<path d="M22.5 0H25V2.5H22.5V0Z" fill="white"/>
<path d="M17.5 0H20V2.5H17.5V0Z" fill="white"/>
<path d="M15 0H17.5V2.5H15V0Z" fill="white"/>
<path d="M12.5 2.5H15V5H12.5V2.5Z" fill="white"/>
<path d="M10 2.5H12.5V5H10V2.5Z" fill="white"/>
<path d="M27.5 2.5H30V5H27.5V2.5Z" fill="white"/>
<path d="M25 2.5H27.5V5H25V2.5Z" fill="white"/>
<path d="M20 37.5H22.5V40H20V37.5Z" fill="white"/>
<path d="M22.5 37.5H25V40H22.5V37.5Z" fill="white"/>
<path d="M17.5 37.5H20V40H17.5V37.5Z" fill="white"/>
<path d="M15 37.5H17.5V40H15V37.5Z" fill="white"/>
<path d="M12.5 35H15V37.5H12.5V35Z" fill="white"/>
<path d="M10 35H12.5V37.5H10V35Z" fill="white"/>
<path d="M27.5 35H30V37.5H27.5V35Z" fill="white"/>
<path d="M25 35H27.5V37.5H25V35Z" fill="white"/>
<path d="M40 20V22.5H37.5V20H40Z" fill="white"/>
<path d="M40 22.5V25H37.5V22.5H40Z" fill="white"/>
<path d="M40 17.5V20H37.5V17.5H40Z" fill="white"/>
<path d="M40 15V17.5H37.5V15H40Z" fill="white"/>
<path d="M37.5 12.5V15H35V12.5H37.5Z" fill="white"/>
<path d="M37.5 10V12.5H35V10H37.5Z" fill="white"/>
<path d="M37.5 27.5V30H35V27.5H37.5Z" fill="white"/>
<path d="M37.5 25V27.5H35V25H37.5Z" fill="white"/>
<path d="M2.5 20V22.5H0V20H2.5Z" fill="white"/>
<path d="M2.5 22.5V25H0V22.5H2.5Z" fill="white"/>
<path d="M2.5 17.5V20H0V17.5H2.5Z" fill="white"/>
<path d="M2.5 15V17.5H0V15H2.5Z" fill="white"/>
<path d="M5 12.5V15H2.5V12.5H5Z" fill="white"/>
<path d="M5 10V12.5H2.5V10H5Z" fill="white"/>
<path d="M5 27.5V30H2.5V27.5H5Z" fill="white"/>
<path d="M5 25V27.5H2.5V25H5Z" fill="white"/>
<path d="M7.5 5H10V7.5H7.5V5Z" fill="white"/>
<path d="M30 5H32.5V7.5H30V5Z" fill="white"/>
<path d="M5 7.5H7.5V10H5V7.5Z" fill="white"/>
<path d="M5 30H7.5V32.5H5V30Z" fill="white"/>
<path d="M7.5 32.5H10V35H7.5V32.5Z" fill="white"/>
<path d="M30 32.5H32.5V35H30V32.5Z" fill="white"/>
<path d="M32.5 30H35V32.5H32.5V30Z" fill="white"/>
<path d="M32.5 7.5H35V10H32.5V7.5Z" fill="white"/>
<path d="M12.5 12.5H15V15H12.5V12.5Z" fill="white"/>
<path d="M10 12.5H12.5V15H10V12.5Z" fill="white"/>
<path d="M12.5 17.5H15V20H12.5V17.5Z" fill="white"/>
<path d="M10 17.5H12.5V20H10V17.5Z" fill="white"/>
<path d="M15 15H17.5V17.5H15V15Z" fill="white"/>
<path d="M27.5 15H25V12.5H27.5V15Z" fill="white"/>
<path d="M30 15H27.5V12.5H30V15Z" fill="white"/>
<path d="M27.5 20H25V17.5H27.5V20Z" fill="white"/>
<path d="M30 20H27.5V17.5H30V20Z" fill="white"/>
<path d="M25 17.5H22.5V15H25V17.5Z" fill="white"/>
<path d="M10 22.5H12.5V25H10V22.5Z" fill="white"/>
<path d="M12.5 22.5H15V25H12.5V22.5Z" fill="white"/>
<path d="M15 22.5H17.5V25H15V22.5Z" fill="white"/>
<path d="M17.5 22.5H20V25H17.5V22.5Z" fill="white"/>
<path d="M20 22.5H22.5V25H20V22.5Z" fill="white"/>
<path d="M22.5 22.5H25V25H22.5V22.5Z" fill="white"/>
<path d="M25 22.5H27.5V25H25V22.5Z" fill="white"/>
<path d="M27.5 22.5H30V25H27.5V22.5Z" fill="white"/>
<path d="M10 25H12.5V27.5H10V25Z" fill="white"/>
<path d="M27.5 25H30V27.5H27.5V25Z" fill="white"/>
<path d="M12.5 27.5H15V30H12.5V27.5Z" fill="white"/>
<path d="M15 30H17.5V32.5H15V30Z" fill="white"/>
<path d="M17.5 30H20V32.5H17.5V30Z" fill="white"/>
<path d="M20 30H22.5V32.5H20V30Z" fill="white"/>
<path d="M22.5 30H25V32.5H22.5V30Z" fill="white"/>
<path d="M25 27.5H27.5V30H25V27.5Z" fill="white"/>
</svg>
