<svg width="41" height="41" viewBox="0 0 41 41" fill="none" xmlns="http://www.w3.org/2000/svg">
<path d="M38.2677 34.0447V32.3126H36.5267V30.5669H34.7901V28.8348H33.0491V27.0891H31.3126V25.357L30 25.3573V10H27.8347V6H26V4H22.6121V2H21V0H8.70109V2H6.96008V4H3.48258V6H2V10H0V24H2V27H3V29H6.95976V31H8.70076V33H21V31H24.356V32.3135H26.0925V34.0457H27.8341V35.7907H29.5707V37.5228H31.3122V39.2679H33.0488V41H38.2673V39.2679H40.0039V34.0456L38.2677 34.0447ZM19 28.8344V31H11V29H8V27H5V26H4V22H2V12H4V8H5.22335V6H8V4H11V2H19V4H21V6H24V8H26V12H27.8343V22H26V25.3569H24.357V27.089H21V28.8347L19 28.8344ZM38.2677 37.522H36.5267V39.2671H34.7901V37.522H33.0491V35.7899H31.3126V34.0449H29.5713V32.3127H27.8347V30.5671H26.0937V27.0892H29.5719V28.8349H31.3134V30.5671H33.05V32.3127H34.791V34.0449H36.5276V35.7899H38.2686L38.2677 37.522Z" fill="white"/>
<path fill-rule="evenodd" clip-rule="evenodd" d="M4 14H6V10H7V8H10V6H13V4H17V6H19V8H22V10H24V14H26V20H24V23.5H22.5V25H19.5V27H17.5V29H13V27H10V25H6V23V21H4V14ZM14 9H15.5V9.5V10.5H16.5H17.5V12V13H18.5H20V14.5V15.5H21H21.5V17.5H23.5V14.5V13.5H22.5H22V12V11H21H19.5V9.5V8.5H18.5H17.5V8V7H16.5H14V9Z" fill="white"/>
</svg>
