<svg width="40" height="40" viewBox="0 0 40 40" fill="none" xmlns="http://www.w3.org/2000/svg">
<path d="M17.5001 15.0006H15.0002V17.5005H17.5001V15.0006ZM17.5001 17.5005H15.0002V20.0004H17.5001V17.5005ZM17.5001 20.0004H15.0002V22.5003H17.5001V20.0004ZM17.5001 22.5003H15.0002V25.0002H17.5001V22.5003ZM17.5001 25.0002H15.0002V27.5002H17.5001V25.0002ZM20 25.0002H17.5001V27.5002H20V25.0002ZM17.5001 27.5002H15.0002V30.0001H17.5001V27.5002ZM20 27.5002H17.5001V30.0001L20 30.0004V27.5002ZM22.4999 27.5002H20V30.0001H22.4999V27.5002ZM24.9998 27.5002H22.4999V30.0001H24.9998V27.5002ZM19.9999 22.5002H17.5V25.0002H19.9999V22.5002ZM22.4998 22.5002H19.9999V25.0002H22.4998V22.5002ZM19.9999 17.5003H17.5V20.0002H19.9999V17.5003ZM19.9999 20.0002H17.5V22.5002H19.9999V20.0002ZM22.4998 17.5003H19.9999V20.0002H22.4998V17.5003ZM22.4998 20.0002H19.9999V22.5002H22.4998V20.0002ZM24.9998 22.5002H22.4998V25.0001H24.9998V22.5002ZM24.9998 17.5002H22.4998V20.0002H24.9998V17.5002ZM24.9998 20.0002H22.4998V22.5001H24.9998V20.0002ZM22.4998 25.0001H19.9999V27.5H22.4998V25.0001ZM24.9998 25.0001H22.4998V27.5H24.9998V25.0001ZM17.4999 30.0002H15V32.5002H17.4999V30.0002ZM19.9998 30.0002H17.4999V32.5002H19.9998V30.0002ZM17.4999 32.5002H15V35.0001H17.4999V32.5002ZM19.9998 32.5002H17.4999V35.0001H19.9998V32.5002ZM22.4998 32.5002H19.9998V35.0001H22.4998V32.5002ZM24.9997 32.5002H22.4998V35.0001H24.9997V32.5002ZM22.4998 30.0002H19.9998V32.5002H22.4998V30.0002ZM24.9997 30.0002H22.4998V32.5002H24.9997V30.0002ZM17.4998 35.0002H14.9999V37.5001H17.4998V35.0002ZM19.9998 35.0002H17.4998V37.5001H19.9998V35.0002ZM17.4998 37.5001H14.9999V40H17.4998V37.5001ZM19.9998 37.5001H17.4998V40H19.9998V37.5001ZM12.4999 35.0002H10V37.5001H12.4999V35.0002ZM14.9998 35.0002H12.4999V37.5001H14.9998V35.0002ZM14.9998 37.5001H12.4999V40H14.9998V37.5001ZM22.4997 37.5001H19.9998V40H22.4997V37.5001ZM24.9996 37.5001H22.4997V40H24.9996V37.5001ZM22.4997 35.0002H19.9998V37.5001H22.4997V35.0002ZM24.9996 35.0002H22.4997V37.5001H24.9996V35.0002ZM27.4995 37.5001H24.9996V40H27.4995V37.5001ZM27.4995 35.0002H24.9996V37.5001H27.4995V35.0002ZM29.9998 35.0002H27.4998V37.5001H29.9998V35.0002ZM29.9998 32.5002H27.4998V35.0002H29.9998V32.5002ZM29.9998 27.5001H27.4998V30H29.9998V27.5001ZM29.9998 22.5002H27.4998V25.0001H29.9998V22.5002ZM29.9998 25.0001H27.4998V27.5H29.9998V25.0001ZM29.9998 30.0002H27.4998V32.5002H29.9998V30.0002ZM19.9994 15.0006H17.4995V17.5005H19.9994V15.0006ZM22.4994 15.0006H19.9994V17.5005H22.4994V15.0006ZM24.9993 15.0006H22.4994V17.5005H24.9993V15.0006ZM17.4994 2.50016H14.9995V5.00008H17.4994V2.50016ZM17.4994 5.00008H14.9995V7.5H17.4994V5.00008ZM17.4994 7.5H14.9995V9.99992H17.4994V7.5ZM14.9995 5.00008H12.4996V7.5H14.9995V5.00008ZM14.9995 7.5H12.4996V9.99992H14.9995V7.5ZM17.4994 9.99992H14.9995V12.4998H17.4994V9.99992ZM19.9994 5H17.4994V7.49992H19.9994V5ZM22.4993 7.49992H19.9994V9.99984H22.4993V7.49992ZM24.9992 9.99984H22.4993V12.4998H24.9992V9.99984ZM24.9992 4.99992H22.4993V7.49984H24.9992V4.99992ZM24.9992 7.49984H22.4993V9.99976H24.9992V7.49984ZM27.4991 7.49984H24.9992V9.99976H27.4991V7.49984ZM19.9993 2.49992H17.4994V4.99984H19.9993V2.49992ZM22.4992 2.49992H19.9993V4.99984H22.4992V2.49992ZM22.4992 0H19.9993V2.49992H22.4992V0ZM24.9991 2.49992H22.4992V4.99984H24.9991V2.49992Z" fill="white"/>
</svg>
