<svg width="40" height="40" viewBox="0 0 40 40" fill="none" xmlns="http://www.w3.org/2000/svg">
<path d="M8 25H32V31H8V25Z" fill="white"/>
<path d="M8 17H32V21H8V17Z" fill="white"/>
<path d="M0 23H8V27H0V23Z" fill="white"/>
<path d="M2 27H8V29H2V27Z" fill="white"/>
<path d="M32 27H38V29H32V27Z" fill="white"/>
<path d="M32 23H40V27H32V23Z" fill="white"/>
<path d="M10 13H30V17H10V13Z" fill="white"/>
<path d="M12 9H16V13H12V9Z" fill="white"/>
<path d="M10 11H12V13H10V11Z" fill="white"/>
<path d="M16 11H18V13H16V11Z" fill="white"/>
<path d="M24 9H28V13H24V9Z" fill="white"/>
<path d="M22 11H24V13H22V11Z" fill="white"/>
<path d="M28 11H30V13H28V11Z" fill="white"/>
</svg>
