<svg width="40" height="40" viewBox="0 0 40 40" fill="none" xmlns="http://www.w3.org/2000/svg">
<path d="M36.3554 20.5339V16.9302H32.7148V13.2081H29.0699L29.0696 9.64496H32.7064V6H29.0615V9.64496H25.4246V13.2899H14.5761V9.64496H10.9395V6H7.29491V9.64496H10.9315L10.9311 13.2081H7.28587V16.9302H3.64496V20.5339H0V31.4689H3.64496V24.1788H7.28587V31.4689H10.9209V35.1135H18.2102V31.4689H10.9308V27.8236H29.0691V31.4689H21.7889V35.1135H29.0788V31.4689H32.7138L32.7144 24.1788H36.355V31.4689H40V20.5339H36.3554ZM14.5639 20.5339H10.9361V16.9342H14.5639V20.5339ZM29.0649 20.5339H25.4376V16.9342H29.0649V20.5339Z" fill="white"/>
</svg>
