<svg width="40" height="40" viewBox="0 0 40 40" fill="none" xmlns="http://www.w3.org/2000/svg">
<path d="M4 36H36V40H4V36Z" fill="white"/>
<path d="M4 13H36V17H4V13Z" fill="white"/>
<path d="M0 17H4V36H0V17Z" fill="white"/>
<path d="M36 17H40V36H36V17Z" fill="white"/>
<path d="M22 17H26V36H22V17Z" fill="white"/>
<path d="M29 19H33V26H29V19Z" fill="white"/>
<path d="M29 30H33V34H29V30Z" fill="white"/>
<path d="M12 0H16V13H12V0Z" fill="white"/>
<path d="M18 9H22V13H18V9Z" fill="white"/>
<path d="M22 5H26V9H22V5Z" fill="white"/>
<path d="M26 1H30V5H26V1Z" fill="white"/>
</svg>
