<svg width="40" height="40" viewBox="0 0 40 40" fill="none" xmlns="http://www.w3.org/2000/svg">
<path d="M32.498 29.9986V27.5019H30.002V25.0006H32.498V8.25253e-06H30.002V2.50136H27.5007V4.99804L17.4991 4.99838V2.5017H14.9977V0H12.5011V25.0005H14.9977V27.5019L9.99935 27.5022V29.9989H7.498V32.5003H12.5007V35.0016H9.99935V37.4983H14.9974V39.9997H22.4975V37.4986H24.9988V40H32.4982L32.4985 37.4986H30.0026V35.002H24.9992V32.5006H30.0019V35.002H32.4979V32.5006H34.9992V29.9993H32.4982L32.498 29.9986ZM17.4991 17.5013H27.5007V22.4994H24.9993V19.998H22.4976V22.4994H17.4993L17.4991 17.5013ZM30.0015 15H24.9988V12.4986H30.0015V15ZM14.9974 12.4983H20.0001V14.9996L14.9974 15V12.4983ZM14.9974 32.5006H20.0001V35.002H14.9974V32.5006ZM7.49766 27.5026V29.9993H5.00098V27.5026H7.49766Z" fill="white"/>
</svg>
