<svg width="40" height="40" viewBox="0 0 40 40" fill="none" xmlns="http://www.w3.org/2000/svg">
<path d="M21.5396 18.4595V15.386H24.6132V18.4595H21.5396ZM18.4661 21.5391H21.5396V18.4595H18.4661V21.5391ZM15.3865 24.6131H18.4661V21.5395H15.3865V24.6131ZM15.3865 24.6131H12.3069V21.5395H6.15921V24.6131H9.23278V27.6927H6.15921V30.7663H3.0796V33.8459H0V39.9991H6.15921V36.9195H9.23278V33.8459H12.3064L12.3068 30.7663H15.3864V33.8459H18.466V27.6923H15.3864L15.3865 24.6131ZM30.7727 0V3.07961H36.9204V9.23278H40V0H30.7727ZM30.7727 3.07961H27.6931V6.15318H30.7727V3.07961ZM33.8463 12.3065H36.9199V9.23289H33.8463V12.3065ZM30.7727 15.3861H33.8463V12.3065H30.7727V15.3861ZM27.6931 18.4596H30.7727V15.3861H27.6931V18.4596ZM24.6135 21.5392H27.6931V18.4596H24.6135V21.5392ZM21.54 24.6132H24.6135V21.5397H21.54V24.6132ZM18.4664 27.6924H21.54V24.6128H18.4664V27.6924ZM27.6932 6.15287H24.6136V9.23248H27.6932V6.15287ZM24.6136 9.23248H21.5401V12.3061H24.6136V9.23248ZM21.5401 12.3061H18.4665V15.3857H21.5401V12.3061ZM18.4665 15.3857H15.3869V18.4592H18.4665V15.3857ZM15.3869 18.4592H12.3073V21.5388H15.3869V18.4592ZM21.5401 36.9191V33.8455H18.4665V36.9191H21.5401ZM3.08022 18.4592V21.5388H6.15982V18.4592H3.08022Z" fill="white"/>
</svg>
