<svg width="40" height="40" viewBox="0 0 40 40" fill="none" xmlns="http://www.w3.org/2000/svg">
<path d="M4.70508 10.7062H7.05785V13.059H4.70508V10.7062Z" fill="white"/>
<path d="M9.41113 10.7062H16.4698V13.059H9.41113V10.7062Z" fill="white"/>
<path d="M16.4697 13.0588H18.8225V15.4113H16.4697V13.0588Z" fill="white"/>
<path d="M4.70508 15.4115H16.4693V17.7643H4.70508V15.4115Z" fill="white"/>
<path d="M16.4697 17.765H18.8225V20.1175H16.4697V17.765Z" fill="white"/>
<path d="M4.70508 20.1177H16.4693V22.4705H4.70508V20.1177Z" fill="white"/>
<path d="M16.4697 22.4712H18.8225V24.824H16.4697V22.4712Z" fill="white"/>
<path d="M18.8232 8.35339H21.1757V10.7059H18.8232V8.35339Z" fill="white"/>
<path d="M21.1757 6V8.35337H37.6468V24.8238H25.8819V27.1768H21.176V29.5296H18.8235V27.1768H14.1177V24.8238H2.3527V8.35337H18.8238V6H0V31.8827H16.4704V34.2355H23.5296V31.8827H40V6H21.1757Z" fill="white"/>
<path d="M23.5293 10.7062H35.2935V13.059H23.5293V10.7062Z" fill="white"/>
<path d="M21.1758 13.0588H23.5286V15.4113H21.1758V13.0588Z" fill="white"/>
<path d="M23.5293 15.4115H35.2935V17.7643H23.5293V15.4115Z" fill="white"/>
<path d="M21.1758 17.765H23.5286V20.1175H21.1758V17.765Z" fill="white"/>
<path d="M23.5293 20.1177H35.2935V22.4705H23.5293V20.1177Z" fill="white"/>
<path d="M21.1758 22.4712H23.5286V24.824H21.1758V22.4712Z" fill="white"/>
</svg>
