<svg width="40" height="40" viewBox="0 0 40 40" fill="none" xmlns="http://www.w3.org/2000/svg">
<path fill-rule="evenodd" clip-rule="evenodd" d="M17.4167 0H24.1979V1.44489H26.9104V3.37141H29.1708V6.26119H30.9792V8.66934H32.7875V12.0408H34.1438V14.9305H35.5V25.5511H34.1438V29.4041H33.2396V32.2939H31.8833V35.1837H30.5271V37.1102H27.8146V38.5551H25.5542V40H15.8667V38.5551H13.2833V37.1102H10.1833V35.1837H8.63333V32.2939H7.08333V29.4041H6.05V25.5511H4.5V14.9305H6.05V12.0408H7.6V8.66934H9.66667V6.26119H11.7333V3.37141H14.3167V1.44489H17.4167V0ZM19.3542 1.95122V3.39611H16.2542V5.32263H13.6708V8.21241H11.6042V10.6206H9.5375V13.992H7.9875V16.8818H6.4375V23.5999H7.9875V27.4529H9.02083V30.3427H10.5708V33.2325H12.1208V35.159H15.2208V36.6039H17.8042V38.0488H23.6167V36.6039H25.8771V35.159H28.5896V33.2325H29.9458V30.3427H31.3021V27.4529H32.2063V23.5999H33.5625V16.8818H32.2063V13.992H30.85V10.6206H29.0417V8.21241H27.2333V5.32263H24.9729V3.39611H22.2604V1.95122H19.3542Z" fill="white"/>
</svg>
