<svg width="40" height="41" viewBox="0 0 40 41" fill="none" xmlns="http://www.w3.org/2000/svg">
<path d="M37.3356 26.6699H40V29.334H37.3356V26.6699ZM37.3356 21.3324H40V16.004H37.3356V21.3324ZM40 8.0018V5.33773H37.3356V8.0018H40ZM40 0H37.3356V2.66869H40V0ZM34.6669 24.0013H37.3356V21.3326H34.6669V24.0013ZM31.9982 13.3358V16.0045H37.3357V13.3358H31.9982ZM34.6669 2.66938V5.33807H37.3356V2.66938H34.6669ZM31.9982 26.6707H34.6669V24.002H31.9982V26.6707ZM31.9982 8.003H34.6669V5.33893H31.9982V8.003ZM31.9982 0.00119933V2.66989H34.6669V0.00119933H31.9982ZM26.6698 16.0055H29.3342V13.3368H26.6698V16.0055ZM24.0011 18.6696H26.6698V16.0055H24.0011V18.6696ZM26.6698 10.6678H24.0011V13.3364H26.6698V10.6678ZM24.0011 8.00334H26.6698V2.67024H24.0011V8.00334ZM24.0011 13.3368H21.3324V16.0055H24.0011V13.3368ZM24.0011 2.67041V0.00171305H18.668V2.67041H24.0011ZM21.3324 16.0053H18.668V18.6694H16.0036V21.3338H13.3349V24.0025H10.6662V26.6712H8.0018V29.3352H5.33739V31.9997H2.66869V34.6684H0V40.0015H5.33747V37.337H8.00188V34.6684H10.6663V31.9997H13.335V29.3352H16.0037V26.6712H18.6681L18.6684 24.0025H21.3328V21.3338H24.0015V18.6694H21.3328V16.0053H21.3324ZM18.668 2.67041H16.0036V5.3391H18.668V2.67041ZM13.3352 8.00351H16.0039V5.33944H13.3352V8.00351ZM13.3352 0.00171305H10.6666V2.67041H13.3352V0.00171305Z" fill="white"/>
</svg>
