<svg width="40" height="40" viewBox="0 0 40 40" fill="none" xmlns="http://www.w3.org/2000/svg">
<path fill-rule="evenodd" clip-rule="evenodd" d="M33.6995 5.73911H36.7997V8.83898H40V21.1851H36.8463V24.2549H33.7538V27.3471H30.6846V30.447H27.5842V33.5158H24.4609V37H15.2537V33.5546H12.1612V30.4857H9.09231V27.4168H5.99183V24.3157H2.92266V21.2238H0V8.9004H2.86888V5.80786H5.93805V3H15V6H18V9V12H15V18H18V21H23V24H18V27H15V30H18V27H23V24H26V21H23V18H18V12H21V9V6H24.4609V3H33.6991L33.6995 5.73911Z" fill="white"/>
</svg>
