<svg width="346" height="68" viewBox="0 0 346 68" fill="none" xmlns="http://www.w3.org/2000/svg">
<path d="M47.6697 8.66723H39.0988V0H47.6697V8.66723ZM37.9432 8.66723H29.3723V0H37.9432V8.66723ZM28.2166 8.66723H19.5494V0H28.2166V8.66723ZM37.9432 18.3938H29.3723V9.82285H37.9432V18.3938ZM18.3938 8.66723H9.82285V0H18.3938V8.66723ZM28.2166 18.3938H19.5494V9.82285H28.2166V18.3938ZM37.9432 28.2166H29.3723V19.5494H37.9432V28.2166ZM8.66722 8.66723H0V0H8.66722V8.66723ZM28.2166 28.2166H19.5494V19.5494H28.2166V28.2166ZM37.9432 37.9432H29.3723V29.3723H37.9432V37.9432ZM28.2166 37.9432H19.5494V29.3723H28.2166V37.9432ZM37.9432 47.6697H29.3723V39.0988H37.9432V47.6697ZM28.2166 47.6697H19.5494V39.0988H28.2166V47.6697ZM37.9432 57.4926H29.3723V48.8254H37.9432V57.4926ZM28.2166 57.4926H19.5494V48.8254H28.2166V57.4926ZM37.9432 67.2191H29.3723V58.6482H37.9432V67.2191ZM28.2166 67.2191H19.5494V58.6482H28.2166V67.2191ZM57.3 8.66723H48.7291V0H57.3V8.66723Z" fill="#FF0000"/>
<path d="M125.017 8.66723H116.35V0H125.017V8.66723ZM125.017 18.3938H116.35V9.82285H125.017V18.3938ZM115.194 18.3938H106.623V9.82285H115.194V18.3938ZM115.194 28.2166H106.623V19.5494H115.194V28.2166ZM85.9184 8.66723H77.3474V0H85.9184V8.66723ZM95.7412 18.3938H87.074V9.82285H95.7412V18.3938ZM105.468 28.2166H96.8968V19.5494H105.468V28.2166ZM76.1918 8.66723H67.5246V0H76.1918V8.66723ZM85.9184 18.3938H77.3474V9.82285H85.9184V18.3938ZM95.7412 28.2166H87.074V19.5494H95.7412V28.2166ZM125.017 57.4926H116.35V48.8254H125.017V57.4926ZM105.468 37.9432H96.8968V29.3723H105.468V37.9432ZM115.194 47.6697H106.623V39.0988H115.194V47.6697ZM76.1918 18.3938H67.5246V9.82285H76.1918V18.3938ZM85.9184 28.2166H77.3474V19.5494H85.9184V28.2166ZM95.7412 37.9432H87.074V29.3723H95.7412V37.9432ZM115.194 57.4926H106.623V48.8254H115.194V57.4926ZM125.017 67.2191H116.35V58.6482H125.017V67.2191ZM105.468 47.6697H96.8968V39.0988H105.468V47.6697ZM95.7412 47.6697H87.074V39.0988H95.7412V47.6697ZM105.468 57.4926H96.8968V48.8254H105.468V57.4926ZM115.194 67.2191H106.623V58.6482H115.194V67.2191ZM85.9184 47.6697H77.3474V39.0988H85.9184V47.6697ZM85.9184 57.4926H77.3474V48.8254H85.9184V57.4926ZM76.1918 57.4926H67.5246V48.8254H76.1918V57.4926ZM76.1918 67.2191H67.5246V58.6482H76.1918V67.2191Z" fill="#00FF00"/>
<path d="M184.036 8.66723H175.465V0H184.036V8.66723ZM174.309 8.66723H165.738V0H174.309V8.66723ZM164.582 8.66723H155.915V0H164.582V8.66723ZM174.309 18.3938H165.738V9.82285H174.309V18.3938ZM154.76 8.66723H146.189V0H154.76V8.66723ZM164.582 18.3938H155.915V9.82285H164.582V18.3938ZM174.309 28.2166H165.738V19.5494H174.309V28.2166ZM145.033 8.66723H136.366V0H145.033V8.66723ZM164.582 28.2166H155.915V19.5494H164.582V28.2166ZM174.309 37.9432H165.738V29.3723H174.309V37.9432ZM164.582 37.9432H155.915V29.3723H164.582V37.9432ZM174.309 47.6697H165.738V39.0988H174.309V47.6697ZM164.582 47.6697H155.915V39.0988H164.582V47.6697ZM174.309 57.4926H165.738V48.8254H174.309V57.4926ZM164.582 57.4926H155.915V48.8254H164.582V57.4926ZM174.309 67.2191H165.738V58.6482H174.309V67.2191ZM164.582 67.2191H155.915V58.6482H164.582V67.2191ZM193.666 8.66723H185.095V0H193.666V8.66723Z" fill="#0000FF"/>
<path d="M231.24 8.66723H222.669V0H231.24V8.66723ZM221.514 8.66723H212.847V0H221.514V8.66723ZM221.514 18.3938H212.847V9.82285H221.514V18.3938ZM231.24 28.2166H222.669V19.5494H231.24V28.2166ZM211.691 18.3938H203.12V9.82285H211.691V18.3938ZM221.514 28.2166H212.847V19.5494H221.514V28.2166ZM211.691 28.2166H203.12V19.5494H211.691V28.2166ZM221.514 37.9432H212.847V29.3723H221.514V37.9432ZM211.691 37.9432H203.12V29.3723H211.691V37.9432ZM221.514 47.6697H212.847V39.0988H221.514V47.6697ZM221.514 57.4926H212.847V48.8254H221.514V57.4926ZM211.691 47.6697H203.12V39.0988H211.691V47.6697ZM211.691 57.4926H203.12V48.8254H211.691V57.4926ZM221.514 67.2191H212.847V58.6482H221.514V67.2191ZM211.691 67.2191H203.12V58.6482H211.691V67.2191Z" fill="white"/>
<path d="M258.659 8.66723H250.089V0H258.659V8.66723ZM248.933 8.66723H240.266V0H248.933V8.66723ZM258.659 18.3938H250.089V9.82285H258.659V18.3938ZM248.933 18.3938H240.266V9.82285H248.933V18.3938ZM258.659 28.2166H250.089V19.5494H258.659V28.2166ZM248.933 28.2166H240.266V19.5494H248.933V28.2166ZM258.659 37.9432H250.089V29.3723H258.659V37.9432ZM248.933 37.9432H240.266V29.3723H248.933V37.9432ZM258.659 47.6697H250.089V39.0988H258.659V47.6697ZM258.659 57.4926H250.089V48.8254H258.659V57.4926ZM248.933 47.6697H240.266V39.0988H248.933V47.6697ZM248.933 57.4926H240.266V48.8254H248.933V57.4926ZM258.659 67.2191H250.089V58.6482H258.659V67.2191ZM248.933 67.2191H240.266V58.6482H248.933V67.2191Z" fill="white"/>
<path d="M287.437 8.66723H278.866V0H287.437V8.66723ZM277.711 8.66723H269.044V0H277.711V8.66723ZM287.437 28.2166H278.866V19.5494H287.437V28.2166ZM277.711 28.2166H269.044V19.5494H277.711V28.2166ZM287.437 37.9432H278.866V29.3723H287.437V37.9432ZM277.711 37.9432H269.044V29.3723H277.711V37.9432ZM287.437 47.6697H278.866V39.0988H287.437V47.6697ZM287.437 57.4926H278.866V48.8254H287.437V57.4926ZM277.711 47.6697H269.044V39.0988H277.711V47.6697ZM277.711 57.4926H269.044V48.8254H277.711V57.4926ZM287.437 67.2191H278.866V58.6482H287.437V67.2191ZM277.711 67.2191H269.044V58.6482H277.711V67.2191Z" fill="white"/>
<path d="M345.885 28.2166H337.314V19.5494H345.885V28.2166ZM336.159 28.2166H327.588V19.5494H336.159V28.2166ZM345.885 37.9432H337.314V29.3723H345.885V37.9432ZM336.159 37.9432H327.588V29.3723H336.159V37.9432ZM316.609 28.2166H308.039V19.5494H316.609V28.2166ZM345.885 57.4926H337.314V48.8254H345.885V57.4926ZM336.159 47.6697H327.588V39.0988H336.159V47.6697ZM306.883 28.2166H298.216V19.5494H306.883V28.2166ZM316.609 37.9432H308.039V29.3723H316.609V37.9432ZM326.432 47.6697H317.765V39.0988H326.432V47.6697ZM336.159 57.4926H327.588V48.8254H336.159V57.4926ZM345.885 67.2191H337.314V58.6482H345.885V67.2191ZM306.883 37.9432H298.216V29.3723H306.883V37.9432ZM316.609 47.6697H308.039V39.0988H316.609V47.6697ZM336.159 67.2191H327.588V58.6482H336.159V67.2191ZM316.609 57.4926H308.039V48.8254H316.609V57.4926ZM306.883 57.4926H298.216V48.8254H306.883V57.4926ZM316.609 67.2191H308.039V58.6482H316.609V67.2191ZM306.883 67.2191H298.216V58.6482H306.883V67.2191Z" fill="white"/>
</svg>
