<svg width="316" height="80" viewBox="0 0 316 80" fill="#dc2626" xmlns="http://www.w3.org/2000/svg">
<path d="M165.178 62.1748L166.731 0H198.576V10.995L177.174 10.995V26.7056H194.725V36.2849H177.174L176.311 62.6926L165.178 62.1748Z" fill="current"/>
<path d="M109.256 11.0338V0.0388184H158.964V11.0338H140.006L139.547 63.2103L128.414 63.7281V11.0338H109.256Z" fill="white"/>
<path d="M0 11.0338V0.0388184H49.6063V11.0338H31.5858V76.712L19.2171 79.0032V11.0338H0Z" fill="white"/>
<path d="M206.084 64.2849V0.297852H217.347V53.6312L244.142 55.9223V67.6118L206.084 64.2849Z" fill="current"/>
<path d="M263.431 0V70.9385L252.168 69.3851V0H263.431Z" fill="current"/>
<path d="M284.999 0L292.147 19.706H292.693L301.435 0H314.822L298.977 36.1276L315.599 80L301.359 76.1165L292.693 52.8229H291.874L283.495 73.7864L270.291 71.7078L285.863 35.8539L271.384 0H284.999Z" fill="current"/>
<path d="M87.5577 0L80.4098 19.706H79.8634L71.1212 0H57.7346L74.0453 33.9159L55.6634 71.7078L68.8673 69.9029L82.0712 44.5307H83.6246L97.3463 66.5372L109.515 64.7249L88.8026 33.9159L101.173 0H87.5577Z" fill="white"/>
</svg>
