<svg width="40" height="40" viewBox="0 0 40 40" fill="rgb(220, 38, 38)" xmlns="http://www.w3.org/2000/svg">
<path d="M13.3333 28.6669H17.7775V33.1111H13.3333V28.6669Z" fill="current"/>
<path d="M8.88867 24.2224H13.3329V28.6667H8.88867V24.2224Z" fill="current"/>
<path d="M4.44434 19.778H8.8886V24.2222H4.44434V19.778Z" fill="current"/>
<path d="M4.44427 10.889H0V19.7779H4.44427V10.889Z" fill="current"/>
<path d="M4.44434 6.44458H8.8886V10.8888H4.44434V6.44458Z" fill="current"/>
<path d="M8.88867 2H13.3329V6.44427H8.88867V2Z" fill="current"/>
<path d="M13.3333 6.44458H17.7775V10.8888H13.3333V6.44458Z" fill="current"/>
<path d="M17.7776 10.889H22.2219V15.3333H17.7776V10.889Z" fill="current"/>
<path d="M22.2219 6.44458H26.6662V10.8888H22.2219V6.44458Z" fill="current"/>
<path d="M26.6665 2H31.1108V6.44427H26.6665V2Z" fill="current"/>
<path d="M31.1108 6.44458H35.5551V10.8888H31.1108V6.44458Z" fill="current"/>
<path d="M35.5554 10.889V19.7779H40V10.889H35.5554Z" fill="current"/>
<path d="M31.1108 19.778H35.5551V24.2222H31.1108V19.778Z" fill="current"/>
<path d="M26.6665 24.2224H31.1108V28.6667H26.6665V24.2224Z" fill="current"/>
<path d="M22.2219 28.6669H26.6662V33.1111H22.2219V28.6669Z" fill="current"/>
<path d="M17.7776 33.1113H22.2219V37.5556H17.7776V33.1113Z" fill="current"/>
<path d="M5.5 9.5L4 11.5L3 12.5L3.5 18.5L5 20.5L8.5 23L9 24.5L12.5 27L13.5 29L17 32L18 33.5H21L22.5 33L26 29L27 28.5L30.5 24.5L31.5 24L34.5 20.5L36 19.5V19V12.5L35.5 10.5L32 7L30.5 6L28 5L23.5 10L22 11L18.5 12L17.5 10.5L14 7.5L13 6L10 5.5L5.5 9.5Z" fill="current"/>
</svg>
