<svg width="40" height="40" viewBox="0 0 40 40" fill="none" xmlns="http://www.w3.org/2000/svg">
<g clip-path="url(#clip0_9_270)">
<rect opacity="0.9" x="8.1499" y="10.25" width="4.5" height="4.5" rx="0.1" fill="white"/>
<rect x="12.95" y="10.25" width="4.5" height="4.5" rx="0.1" fill="white"/>
<rect x="17.75" y="10.25" width="4.5" height="4.5" rx="0.1" fill="white"/>
<rect x="22.5498" y="10.25" width="4.5" height="4.5" rx="0.1" fill="white"/>
<rect opacity="0.9" x="27.3499" y="10.25" width="4.5" height="4.5" rx="0.1" fill="white"/>
</g>
<g clip-path="url(#clip1_9_270)">
<rect opacity="0.9" x="8.1499" y="17.75" width="4.5" height="4.5" rx="0.1" fill="white"/>
<rect x="12.95" y="17.75" width="4.5" height="4.5" rx="0.1" fill="white"/>
<rect x="17.75" y="17.75" width="4.5" height="4.5" rx="0.1" fill="white"/>
<rect x="22.5498" y="17.75" width="4.5" height="4.5" rx="0.1" fill="white"/>
<rect opacity="0.9" x="27.3499" y="17.75" width="4.5" height="4.5" rx="0.1" fill="white"/>
</g>
<g clip-path="url(#clip2_9_270)">
<rect opacity="0.9" x="8.1499" y="25.25" width="4.5" height="4.5" rx="0.1" fill="white"/>
<rect x="12.95" y="25.25" width="4.5" height="4.5" rx="0.1" fill="white"/>
<rect x="17.75" y="25.25" width="4.5" height="4.5" rx="0.1" fill="white"/>
<rect x="22.5498" y="25.25" width="4.5" height="4.5" rx="0.1" fill="white"/>
<rect opacity="0.9" x="27.3499" y="25.25" width="4.5" height="4.5" rx="0.1" fill="white"/>
</g>
<defs>
<clipPath id="clip0_9_270">
<rect width="23.7" height="4.5" fill="white" transform="translate(8.1499 10.25)"/>
</clipPath>
<clipPath id="clip1_9_270">
<rect width="23.7" height="4.5" fill="white" transform="translate(8.1499 17.75)"/>
</clipPath>
<clipPath id="clip2_9_270">
<rect width="23.7" height="4.5" fill="white" transform="translate(8.1499 25.25)"/>
</clipPath>
</defs>
</svg>
