<svg width="63" height="73" viewBox="0 0 63 73" fill="current" xmlns="http://www.w3.org/2000/svg">
<path d="M51.7693 9.41261H42.4613V0H51.7693V9.41261ZM41.2063 9.41261H31.8983V0H41.2063V9.41261ZM30.6433 9.41261H21.2307V0H30.6433V9.41261ZM41.2063 19.9756H31.8983V10.6676H41.2063V19.9756ZM19.9756 9.41261H10.6676V0H19.9756V9.41261ZM30.6433 19.9756H21.2307V10.6676H30.6433V19.9756ZM41.2063 30.6433H31.8983V21.2307H41.2063V30.6433ZM9.41261 9.41261H0V0H9.41261V9.41261ZM30.6433 30.6433H21.2307V21.2307H30.6433V30.6433ZM41.2063 41.2063H31.8983V31.8983H41.2063V41.2063ZM30.6433 41.2063H21.2307V31.8983H30.6433V41.2063ZM41.2063 51.7693H31.8983V42.4613H41.2063V51.7693ZM30.6433 51.7693H21.2307V42.4613H30.6433V51.7693ZM41.2063 62.437H31.8983V53.0244H41.2063V62.437ZM30.6433 62.437H21.2307V53.0244H30.6433V62.437ZM41.2063 73H31.8983V63.692H41.2063V73ZM30.6433 73H21.2307V63.692H30.6433V73ZM62.2278 9.41261H52.9198V0H62.2278V9.41261Z" fill="current"/>
</svg>
