<svg width="40" height="40" viewBox="0 0 40 40" fill="none" xmlns="http://www.w3.org/2000/svg">
<path d="M35.2317 25.6396H5.03906V28.3016H35.2317V25.6396Z" fill="white"/>
<path d="M35.2317 18.8794H5.03906V21.5414H35.2317V18.8794Z" fill="white"/>
<path d="M35.2317 12.1533H5.03906V14.7453H35.2317V12.1533Z" fill="white"/>
<path d="M38.3914 7.25134C31.9914 6.52629 25.2601 5.01736 18.0061 5.35992C12.4727 5.62121 7.17813 6.72524 2.10422 7.32139C1.03242 15.4419 0.90002 25.0314 2.10422 33.1007C7.84363 33.8026 13.7519 35.0622 20.1778 35.0622C26.5855 35.0622 32.6401 33.8797 38.3914 33.1708C39.4983 24.9431 39.5004 15.4783 38.3914 7.25134ZM36.8503 31.6997C31.6132 32.3736 26.0566 33.3809 20.1778 33.3809C14.2913 33.3809 8.85659 32.3105 3.64538 31.6296C2.56517 24.4261 2.71718 16.0618 3.64538 8.79249C8.0762 8.27901 12.8139 7.27025 17.6559 7.04118C24.5063 6.71754 30.8678 7.98829 36.8503 8.72244C37.8205 15.9575 37.8086 24.4611 36.8503 31.6997Z" fill="white"/>
</svg>
